<svg width="15" height="16" viewBox="0 0 15 16" fill="none" xmlns="http://www.w3.org/2000/svg">
<g clip-path="url(#clip0_33_52)">
<path d="M1.51465 9.22188L2.44336 9.41875C2.6748 9.46875 2.91211 9.39062 3.0791 9.2125L3.53027 8.73125C3.87012 8.36875 4.44141 8.46875 4.65527 8.925L4.92773 9.50313C5.06836 9.80313 5.35547 9.99375 5.67188 9.99375C6.11719 9.99375 6.43652 9.5375 6.30762 9.08125L6.13184 8.45938C5.99707 7.97813 6.33398 7.49375 6.80566 7.49375H6.87305C7.26563 7.49375 7.63184 7.28438 7.84863 6.9375L8.16211 6.43437C8.32617 6.16875 8.31738 5.82187 8.13867 5.56875L7.66699 4.89687C7.36523 4.46875 7.57031 3.85 8.05957 3.71875L8.55762 3.58437C8.77734 3.525 8.95605 3.35938 9.04102 3.13438L9.52148 1.85625C8.88867 1.62813 8.20898 1.5 7.5 1.5C4.13379 1.5 1.40625 4.40937 1.40625 8C1.40625 8.41875 1.44434 8.82813 1.51465 9.22188ZM13.459 9.36563C13.3711 9.35625 13.2832 9.3625 13.1953 9.39062L12.7324 9.52812C12.5361 9.5875 12.3281 9.5 12.2197 9.31875L12.1611 9.22188C11.9854 8.92813 11.6807 8.75 11.3525 8.75C11.0244 8.75 10.7197 8.92813 10.5439 9.22188L10.3652 9.51875C10.3242 9.5875 10.2656 9.64687 10.1982 9.68437L9.14062 10.3156C8.61035 10.6313 8.39355 11.3281 8.64258 11.9187L8.80371 12.3062C9.05566 12.9062 9.70313 13.1969 10.2832 12.9656L10.3594 12.9344C10.6523 12.8187 10.9834 12.8656 11.2354 13.0625L11.2793 13.0969C12.3691 12.175 13.1572 10.8656 13.459 9.3625V9.36563ZM0 8C0 5.87827 0.790176 3.84344 2.1967 2.34315C3.60322 0.842855 5.51088 0 7.5 0C9.48912 0 11.3968 0.842855 12.8033 2.34315C14.2098 3.84344 15 5.87827 15 8C15 10.1217 14.2098 12.1566 12.8033 13.6569C11.3968 15.1571 9.48912 16 7.5 16C5.51088 16 3.60322 15.1571 2.1967 13.6569C0.790176 12.1566 0 10.1217 0 8ZM4.2334 10.8781C4.17188 11.1469 4.32422 11.4188 4.57324 11.4844L5.51074 11.7344C5.7627 11.8 6.01758 11.6375 6.0791 11.3719C6.14062 11.1062 5.98828 10.8312 5.73926 10.7656L4.80176 10.5156C4.5498 10.45 4.29492 10.6125 4.2334 10.8781ZM6.92871 10.2531C6.86719 10.5219 7.01953 10.7938 7.26855 10.8594C7.51758 10.925 7.77539 10.7625 7.83691 10.4969L8.07129 9.49687C8.13281 9.22812 7.98047 8.95625 7.73145 8.89062C7.48242 8.825 7.22461 8.9875 7.16309 9.25313L6.92871 10.2531ZM10.0547 3.55312C9.82324 3.42812 9.54199 3.53125 9.42481 3.77813L8.95606 4.77812C8.83887 5.025 8.93555 5.325 9.16699 5.45C9.39844 5.575 9.67969 5.47187 9.79687 5.225L10.2656 4.225C10.3828 3.97812 10.2861 3.67812 10.0547 3.55312Z" fill="white"/>
</g>
<defs>
<clipPath id="clip0_33_52">
<rect width="15" height="16" fill="white"/>
</clipPath>
</defs>
</svg>
