<svg width="15" height="13" viewBox="0 0 15 13" fill="none" xmlns="http://www.w3.org/2000/svg">
<g clip-path="url(#clip0_33_48)">
<path d="M14.9948 6.4873C14.9948 6.94434 14.6042 7.30234 14.1615 7.30234H13.3281L13.3464 11.3699C13.3464 11.4385 13.3411 11.507 13.3333 11.5756V11.9844C13.3333 12.5455 12.8672 13 12.2917 13H11.875C11.8464 13 11.8177 13 11.7891 12.9975C11.7526 13 11.7161 13 11.6797 13H10.8333H10.2083C9.63281 13 9.16667 12.5455 9.16667 11.9844V11.375V9.75C9.16667 9.30059 8.79427 8.9375 8.33333 8.9375H6.66667C6.20573 8.9375 5.83333 9.30059 5.83333 9.75V11.375V11.9844C5.83333 12.5455 5.36719 13 4.79167 13H4.16667H3.33594C3.29687 13 3.25781 12.9975 3.21875 12.9949C3.1875 12.9975 3.15625 13 3.125 13H2.70833C2.13281 13 1.66667 12.5455 1.66667 11.9844V9.14062C1.66667 9.11777 1.66667 9.09238 1.66927 9.06953V7.30234H0.833333C0.364583 7.30234 0 6.94688 0 6.4873C0 6.25879 0.078125 6.05566 0.260417 5.87793L6.9375 0.203125C7.11979 0.0253906 7.32812 0 7.51042 0C7.69271 0 7.90104 0.0507812 8.05729 0.177734L14.7083 5.87793C14.9167 6.05566 15.0208 6.25879 14.9948 6.4873Z" fill="white"/>
</g>
<defs>
<clipPath id="clip0_33_48">
<rect width="15" height="13" fill="white"/>
</clipPath>
</defs>
</svg>
