<svg width="50" height="50" viewBox="0 0 50 50" fill="none" xmlns="http://www.w3.org/2000/svg">
<path d="M0 20C0 8.9543 8.95431 0 20 0H30C41.0457 0 50 8.95431 50 20V30C50 41.0457 41.0457 50 30 50H20C8.9543 50 0 41.0457 0 30V20Z" fill="#D9D9D9"/>
<g clip-path="url(#clip0_59_135)">
<path d="M25 4C23.5777 4 22.4286 5.17305 22.4286 6.625V8.2C16.5625 9.41406 12.1428 14.7133 12.1428 21.0625V22.6047C12.1428 26.4602 10.7527 30.1844 8.24552 33.0719L7.65088 33.7527C6.97588 34.5238 6.81517 35.6313 7.22499 36.5746C7.63481 37.518 8.55892 38.125 9.57142 38.125H40.4286C41.4411 38.125 42.3571 37.518 42.775 36.5746C43.1928 35.6313 43.0241 34.5238 42.3491 33.7527L41.7545 33.0719C39.2473 30.1844 37.8571 26.4684 37.8571 22.6047V21.0625C37.8571 14.7133 33.4375 9.41406 27.5714 8.2V6.625C27.5714 5.17305 26.4223 4 25 4ZM28.6402 44.466C29.6045 43.4816 30.1428 42.1445 30.1428 40.75H25H19.8571C19.8571 42.1445 20.3955 43.4816 21.3598 44.466C22.3241 45.4504 23.6339 46 25 46C26.3661 46 27.6759 45.4504 28.6402 44.466Z" fill="#1B1F3E"/>
</g>
<defs>
<clipPath id="clip0_59_135">
<rect width="36" height="42" fill="white" transform="translate(7 4)"/>
</clipPath>
</defs>
</svg>
