<svg width="202" height="41" viewBox="0 0 202 41" fill="none" xmlns="http://www.w3.org/2000/svg">
<path d="M33.3952 0.5C24.5461 0.5 16.5108 2.70078 10.6715 6.2853C4.8405 9.86475 1.12903 14.8762 1.12903 20.5C1.12903 26.1238 4.8405 31.1352 10.6715 34.7147C16.5108 38.2992 24.5461 40.5 33.3952 40.5C24.2504 40.5 15.9954 38.2236 10.0428 34.5696C4.08196 30.9104 0.5 25.9219 0.5 20.5C0.5 15.0781 4.08196 10.0896 10.0428 6.43043C15.9954 2.77638 24.2504 0.5 33.3952 0.5ZM168.605 40.5C177.454 40.5 185.489 38.2992 191.328 34.7147C197.16 31.1352 200.871 26.1238 200.871 20.5C200.871 14.8762 197.16 9.86475 191.328 6.2853C185.489 2.70078 177.454 0.5 168.605 0.5C177.75 0.5 186.005 2.77638 191.957 6.43043C197.918 10.0896 201.5 15.0781 201.5 20.5C201.5 25.9219 197.918 30.9104 191.957 34.5696C186.005 38.2236 177.75 40.5 168.605 40.5Z" fill="#545645" stroke="white"/>
</svg>
