<svg width="70" height="70" viewBox="0 0 70 70" fill="none" xmlns="http://www.w3.org/2000/svg">
<path d="M0 30C0 13.4315 13.4315 0 30 0H40C56.5685 0 70 13.4315 70 30V40C70 56.5685 56.5685 70 40 70H30C13.4315 70 0 56.5685 0 40V30Z" fill="#D9D9D9"/>
<g clip-path="url(#clip0_59_136)">
<path d="M43.9286 22.5C43.9286 20.428 42.9879 18.4409 41.3135 16.9757C39.639 15.5106 37.368 14.6875 35 14.6875C32.632 14.6875 30.361 15.5106 28.6865 16.9757C27.0121 18.4409 26.0714 20.428 26.0714 22.5C26.0714 24.572 27.0121 26.5591 28.6865 28.0243C30.361 29.4894 32.632 30.3125 35 30.3125C37.368 30.3125 39.639 29.4894 41.3135 28.0243C42.9879 26.5591 43.9286 24.572 43.9286 22.5ZM20.7143 22.5C20.7143 19.1848 22.2194 16.0054 24.8985 13.6612C27.5776 11.317 31.2112 10 35 10C38.7888 10 42.4224 11.317 45.1015 13.6612C47.7806 16.0054 49.2857 19.1848 49.2857 22.5C49.2857 25.8152 47.7806 28.9946 45.1015 31.3388C42.4224 33.683 38.7888 35 35 35C31.2112 35 27.5776 33.683 24.8985 31.3388C22.2194 28.9946 20.7143 25.8152 20.7143 22.5ZM15.5022 55.3125H54.4978C53.5045 49.1309 47.433 44.375 40.1004 44.375H29.8996C22.567 44.375 16.4955 49.1309 15.5022 55.3125ZM10 57.0996C10 47.4805 18.9062 39.6875 29.8996 39.6875H40.1004C51.0938 39.6875 60 47.4805 60 57.0996C60 58.7012 58.5156 60 56.6853 60H13.3147C11.4844 60 10 58.7012 10 57.0996Z" fill="black"/>
</g>
<defs>
<clipPath id="clip0_59_136">
<rect width="50" height="50" fill="white" transform="translate(10 10)"/>
</clipPath>
</defs>
</svg>
